<svg width="46" height="42" viewBox="0 0 46 42" fill="none" xmlns="http://www.w3.org/2000/svg">
<g id="Cards" clip-path="url(#clip0_7_59)">
<rect width="46" height="42" fill="#1C0E2C"/>
<path id="Vector" d="M30.6784 39.2545H15.324C12.1635 39.2545 9.59307 36.6784 9.59307 33.511V5.74351C9.59307 2.57611 12.1635 0 15.324 0H30.6776C33.838 0 36.4085 2.57611 36.4085 5.74351V33.5118C36.4093 36.6784 33.838 39.2545 30.6784 39.2545ZM15.324 2.94926C13.7868 2.94926 12.5367 4.20216 12.5367 5.74271V33.511C12.5367 35.0515 13.7868 36.3044 15.324 36.3044H30.6776C32.2148 36.3044 33.4649 35.0515 33.4649 33.511V5.74351C33.4649 4.20296 32.2148 2.95006 30.6776 2.95006L15.324 2.94926Z" fill="#9166BF"/>
<path id="Vector_2" d="M34.7924 42C34.4129 42 34.0318 41.9625 33.6515 41.8849C32.855 41.7235 32.3391 40.9445 32.501 40.1462C32.6628 39.3472 33.4402 38.8366 34.2359 38.9932C34.9582 39.141 35.6997 38.9924 36.3216 38.5801C36.9419 38.1662 37.3653 37.5406 37.5104 36.8166L43.0006 9.58291C43.1473 8.85818 43.0006 8.11587 42.5876 7.49341C42.1746 6.87096 41.5495 6.44667 40.8263 6.30125L37.9194 5.71155C37.1229 5.55015 36.6071 4.77188 36.7689 3.97284C36.9308 3.1738 37.7105 2.66241 38.503 2.81982L41.41 3.40872C42.9041 3.71075 44.1933 4.58171 45.0416 5.86097C45.8892 7.14104 46.189 8.6696 45.8876 10.167L40.3974 37.3991C40.096 38.8965 39.227 40.1886 37.9505 41.038C36.9961 41.6716 35.9046 42 34.7924 42ZM11.2084 42C10.0954 42 9.00387 41.6724 8.05189 41.0388C6.77463 40.1894 5.90557 38.8973 5.60499 37.3991L0.114811 10.167C-0.187364 8.6704 0.113217 7.14184 0.960743 5.86177C1.80827 4.58171 3.09829 3.71155 4.59243 3.40952L7.49857 2.82062C8.29507 2.66481 9.07243 3.1754 9.23269 3.97364C9.39374 4.77268 8.87869 5.55095 8.08139 5.71235L5.17445 6.30125C4.4513 6.44667 3.82543 6.87096 3.41243 7.49341C3.00023 8.11587 2.85352 8.85818 2.99943 9.58211L8.48961 36.8158C8.63552 37.5406 9.05728 38.1662 9.67838 38.5801C10.3003 38.9924 11.0402 39.1402 11.7641 38.9932C12.559 38.8374 13.338 39.3472 13.499 40.1462C13.6601 40.9445 13.145 41.7235 12.3485 41.8849C11.969 41.9617 11.5879 42 11.2084 42ZM29.3836 11.4543C28.5703 11.4543 27.9109 10.7943 27.9109 9.97923V5.92889C27.9109 5.11387 28.5703 4.45386 29.3836 4.45386C30.1968 4.45386 30.8554 5.11387 30.8554 5.92889V9.97923C30.8554 10.7943 30.1968 11.4543 29.3836 11.4543Z" fill="#9166BF"/>
<path id="Vector_3" d="M31.4047 9.4287H27.3624C26.5492 9.4287 25.8898 8.76869 25.8898 7.95367C25.8898 7.13865 26.5492 6.47864 27.3624 6.47864H31.4047C32.2179 6.47864 32.8765 7.13865 32.8765 7.95367C32.8765 8.76869 32.2171 9.4287 31.4047 9.4287ZM16.618 34.7999C15.8048 34.7999 15.1462 34.1398 15.1462 33.3248V29.2753C15.1462 28.4603 15.8056 27.8003 16.618 27.8003C17.4305 27.8003 18.0899 28.4603 18.0899 29.2753V33.3248C18.0899 34.1398 17.4313 34.7999 16.618 34.7999Z" fill="#9166BF"/>
<path id="Vector_4" d="M18.6384 32.7751H14.5977C13.7845 32.7751 13.1259 32.1151 13.1259 31.3C13.1259 30.485 13.7853 29.825 14.5977 29.825H18.6384C19.4516 29.825 20.1102 30.485 20.1102 31.3C20.1102 32.1151 19.4508 32.7751 18.6384 32.7751Z" fill="#9166BF"/>
<g id="Group">
<path id="Vector_5" d="M21.8794 28.6065C21.8563 28.6065 21.8332 28.6065 21.8108 28.6049C20.9984 28.5673 20.3709 27.8777 20.4084 27.0635L20.4762 25.5933C20.5136 24.7791 21.2081 24.127 22.0141 24.1878C22.8266 24.2253 23.4541 24.9149 23.4166 25.7291L23.3488 27.1994C23.3121 27.9896 22.6608 28.6065 21.8794 28.6065ZM20.5758 21.5501C19.4126 21.8538 17.9814 20.97 17.9663 19.2721C17.936 15.475 22.479 16.2229 22.0078 19.6844C21.8595 20.7743 21.2639 21.3695 20.5758 21.5501Z" fill="#9166BF"/>
<g id="Group_2">
<path id="Vector_6" d="M24.123 28.6065C23.3416 28.6065 22.6903 27.9904 22.6536 27.2002L22.585 25.7299C22.5475 24.9157 23.175 24.2253 23.9867 24.1878C24.8063 24.1302 25.488 24.7783 25.5262 25.5925L25.5948 27.0627C25.6323 27.8769 25.0048 28.5673 24.1924 28.6049C24.1684 28.6065 24.1453 28.6065 24.123 28.6065ZM23.9938 19.6844C23.5226 16.2229 28.0664 15.475 28.0345 19.2721C28.0202 20.97 26.5882 21.853 25.425 21.5501C24.7377 21.3695 24.1429 20.7743 23.9938 19.6844Z" fill="#9166BF"/>
</g>
</g>
<g id="Group_3">
<path id="Vector_7" d="M26.3339 28.5082C25.5685 28.5082 24.9219 27.9145 24.8677 27.1371C24.7975 26.1398 24.7696 25.32 24.8461 24.31C24.9043 23.5406 25.5438 22.9469 26.314 22.9469C27.1758 22.9469 27.7874 22.7168 28.182 22.2437C28.8502 21.4431 29.0455 19.8234 28.7027 17.9105C27.9986 13.9689 24.4945 13.6117 23.0163 13.5989C21.515 13.6125 18.0029 13.9704 17.2973 17.9113C16.9553 19.8234 17.1506 21.4431 17.8188 22.2429C18.2134 22.7168 18.825 22.9469 19.6884 22.9469C20.4594 22.9469 21.0996 23.5422 21.1563 24.3124C21.2312 25.3216 21.2033 26.1406 21.1339 27.1355C21.0773 27.9481 20.3789 28.5625 19.5633 28.505C18.7524 28.4483 18.1409 27.7435 18.1975 26.9309C18.2302 26.4698 18.2485 26.0895 18.2549 25.7443C16.917 25.4431 16.0695 24.7455 15.5616 24.1367C13.865 22.1047 14.1058 19.0372 14.4 17.3911C15.147 13.2217 18.3928 10.6488 22.8848 10.6488C22.9733 10.6488 23.061 10.6488 23.1487 10.6488C27.6112 10.6488 30.8562 13.2225 31.6016 17.3911C31.8958 19.0388 32.1374 22.1047 30.4408 24.1367C29.9321 24.7455 29.0854 25.4431 27.7475 25.7451C27.7539 26.0895 27.7722 26.4691 27.8049 26.9293C27.8615 27.7427 27.2508 28.4467 26.4399 28.505C26.4041 28.5074 26.369 28.5082 26.3339 28.5082Z" fill="#9166BF"/>
</g>
<g id="Group_4">
<path id="Vector_8" d="M22.6655 23.9888C22.3713 23.9888 22.0739 23.9009 21.8156 23.7171C21.397 23.4199 21.1387 22.9668 21.1068 22.473C21.0542 21.6596 21.5924 21.161 21.8228 20.9493C21.8539 20.9221 21.8268 20.9557 21.8084 20.9812C22.3442 20.2405 23.5601 20.2086 24.1357 20.9109C24.4244 21.1786 24.9442 21.6732 24.8924 22.473C24.8605 22.966 24.6022 23.4199 24.1828 23.7171C23.8256 23.9704 23.3951 24.0424 22.9988 23.9497C22.8904 23.976 22.7787 23.9888 22.6655 23.9888Z" fill="#9166BF"/>
</g>
</g>
<defs>
<clipPath id="clip0_7_59">
<rect width="46" height="42" fill="white"/>
</clipPath>
</defs>
</svg>
