<svg width="40" height="26" viewBox="0 0 40 26" fill="none" xmlns="http://www.w3.org/2000/svg">
<g id="Vector">
<path d="M37.4417 10.8333H2.55833C1.42155 10.8333 0.5 11.7549 0.5 12.8917V13.1083C0.5 14.2451 1.42155 15.1667 2.55833 15.1667H37.4417C38.5785 15.1667 39.5 14.2451 39.5 13.1083V12.8917C39.5 11.7549 38.5785 10.8333 37.4417 10.8333Z" fill="#9166BF"/>
<path d="M37.4417 21.6667H2.55833C1.42155 21.6667 0.5 22.5882 0.5 23.725V23.9417C0.5 25.0784 1.42155 26 2.55833 26H37.4417C38.5785 26 39.5 25.0784 39.5 23.9417V23.725C39.5 22.5882 38.5785 21.6667 37.4417 21.6667Z" fill="#9166BF"/>
<path d="M37.4417 0H2.55833C1.42155 0 0.5 0.921547 0.5 2.05833V2.275C0.5 3.41179 1.42155 4.33333 2.55833 4.33333H37.4417C38.5785 4.33333 39.5 3.41179 39.5 2.275V2.05833C39.5 0.921547 38.5785 0 37.4417 0Z" fill="#9166BF"/>
</g>
</svg>
